<?xml version="1.0" encoding="UTF-8"?>
<svg id="Layer_1" data-name="Layer 1" xmlns="http://www.w3.org/2000/svg" viewBox="0 0 256 256">
  <defs>
    <style>
      .cls-1 {
        fill: #3f3f46;
      }

      .cls-1, .cls-2, .cls-3, .cls-4 {
        stroke-width: 0px;
      }

      .cls-3 {
        fill: #e34a39;
      }

      .cls-4 {
        fill: #a0a0a9;
      }

      .cls-5 {
        opacity: .6;
      }
    </style>
  </defs>
  <path class="cls-3" d="m164.53,169.71c-24.31,0-48.62,0-72.93,0-1.06-.67-.89-1.82-1.06-2.82-2.19-13.08-11.46-22.01-24.6-22.47-12-.42-22.56,7.29-25.58,20.23-.4,1.71-.13,3.65-1.53,5.07-6.64-.08-13.36.55-19.65-2.36-10.33-4.78-16-12.86-16.85-24.19-1.49-19.84,15.72-36.85,35.51-36.36,2.85.07,5.72-.12,8.56.05,2.2.13,2.95-.51,2.95-2.83-.02-5.51-.27-11.01.33-16.53,1.64-15.12,14.9-27.52,30.08-27.57,32.17-.09,64.35-.11,96.52,0,16.2.06,29.89,13.94,30.1,30.19.06,4.76.09,9.52-.02,14.28-.04,1.86.55,2.44,2.43,2.46,6.06.07,12.15-.53,18.17.95,16.54,4.05,27.63,18.79,26.74,35.75-.72,13.79-12.87,25.68-26.7,26.1-3.23.1-6.47.05-9.71.07-1.07-.67-.89-1.82-1.06-2.81-2.17-13.07-11.41-22-24.58-22.5-12.1-.45-22.74,7.41-25.66,20.48-.36,1.62-.09,3.47-1.47,4.79Z"/>
  <path class="cls-2" d="m38.83,169.74c1.18-12.92,8.16-22.06,19.23-25.16,16.34-4.57,32.47,7.02,33.43,24,.02.38.08.75.12,1.13-.44,14.94-10.69,23.39-20,25.64-15.95,3.85-31.27-7.26-32.61-23.64-.05-.66-.11-1.32-.16-1.98Z"/>
  <path class="cls-2" d="m164.53,169.71c1.14-12.87,8.17-22.05,19.25-25.14,16.35-4.55,32.44,7.03,33.4,24.04.02.38.08.75.12,1.13-.49,15.18-10.95,23.45-20.03,25.62-15.95,3.82-31.29-7.31-32.59-23.67-.05-.66-.1-1.32-.15-1.99Z"/>
  <path class="cls-4" d="m54.79,169.76c.04-5.85,4.7-10.43,10.56-10.38,5.83.05,10.41,4.74,10.36,10.6-.06,5.79-4.85,10.52-10.57,10.45-5.76-.08-10.38-4.84-10.34-10.66Z"/>
  <path class="cls-4" d="m180.48,169.83c.01-5.86,4.64-10.47,10.48-10.45,5.84.01,10.45,4.66,10.43,10.52-.02,5.79-4.76,10.54-10.5,10.52-5.75-.02-10.43-4.78-10.41-10.59Z"/>
  <g class="cls-5">
    <path class="cls-1" d="m110.94,106.94c.69-.07,1.37-.13,2.06-.2,0,0,0,0,0,0,6.92-2.18,12.12-6.28,14.43-13.37,3.14-9.61-2.86-17.87-12.92-17.9-10.07-.03-20.14-.02-30.21,0-6.9.01-12.23,3.07-16.17,8.61-5.15,7.24-5.08,19.07,6.88,22.7.53.05,1.06.1,1.58.15,0,0,0,0,0,0,0,0,0,0,0,0,11.45,0,22.9,0,34.35,0,0,0,0,0,0,0h0Z"/>
    <path class="cls-1" d="m181.05,106.77c7.98-3.28,11.13-8.39,9.74-15.8-1.57-8.39-9.63-15.32-18.18-15.48-5.33-.1-10.66-.08-15.99,0-8.99.13-14.81,7.48-12.79,16.24,1.88,8.15,7.42,12.75,15.16,15.07.53.05,1.06.09,1.59.14h0s0,0,0,0c6.3,0,12.61,0,18.91,0,.52-.05,1.04-.1,1.56-.15,0,0,0,0,0,0Z"/>
  </g>
</svg>